<?xml version="1.0" encoding="UTF-8" standalone="no"?>
<!-- Created with Inkscape (http://www.inkscape.org/) -->

<svg
   width="128"
   height="32"
   viewBox="0 0 128 31.999999"
   version="1.1"
   id="svg2424"
   inkscape:version="1.2 (dc2aedaf03, 2022-05-15)"
   sodipodi:docname="geekcomp_logo_outlined.svg"
   xmlns:inkscape="http://www.inkscape.org/namespaces/inkscape"
   xmlns:sodipodi="http://sodipodi.sourceforge.net/DTD/sodipodi-0.dtd"
   xmlns="http://www.w3.org/2000/svg"
   xmlns:svg="http://www.w3.org/2000/svg">
  <sodipodi:namedview
     id="namedview2426"
     pagecolor="#ffffff"
     bordercolor="#666666"
     borderopacity="1.0"
     inkscape:showpageshadow="2"
     inkscape:pageopacity="0.0"
     inkscape:pagecheckerboard="0"
     inkscape:deskcolor="#d1d1d1"
     inkscape:document-units="px"
     showgrid="true"
     inkscape:zoom="8.9921875"
     inkscape:cx="64"
     inkscape:cy="15.958297"
     inkscape:window-width="1920"
     inkscape:window-height="991"
     inkscape:window-x="-9"
     inkscape:window-y="-9"
     inkscape:window-maximized="1"
     inkscape:current-layer="layer1">
    <inkscape:grid
       type="xygrid"
       id="grid2907"
       originx="0"
       originy="0" />
  </sodipodi:namedview>
  <defs
     id="defs2421">
    <inkscape:path-effect
       effect="spiro"
       id="path-effect2114"
       is_visible="true"
       lpeversion="1" />
  </defs>
  <g
     inkscape:label="Layer 1"
     inkscape:groupmode="layer"
     id="layer1">
    <path
       style="color:#000000;fill:#000000;-inkscape-stroke:none"
       d="m 34.5,7 v 3 h 1 V 7 Z"
       id="path995" />
    <path
       style="color:#000000;fill:#000000;-inkscape-stroke:none"
       d="m 26,9.5 v 1 h 18 v -1 z"
       id="path997" />
    <path
       style="color:#000000;fill:#000000;-inkscape-stroke:none"
       d="m 31.599609,9.699219 -3,4 0.800782,0.601562 3,-4 z"
       id="path999" />
    <path
       style="color:#000000;fill:#000000;-inkscape-stroke:none"
       d="m 39.900391,10.699219 -0.800782,0.601562 3,4 0.800782,-0.601562 z"
       id="path1001" />
    <path
       style="color:#000000;fill:#000000;-inkscape-stroke:none"
       d="m 27,13.5 v 1 h 15 v -1 z"
       id="path1003" />
    <path
       style="color:#000000;fill:#000000;-inkscape-stroke:none"
       d="m 28.5,16 v 9.5 h 1 V 16 Z"
       id="path1005" />
    <path
       style="color:#000000;fill:#000000;-inkscape-stroke:none"
       d="m 28.5,15.5 v 1 h 13 v -1 z"
       id="path1007" />
    <path
       style="color:#000000;fill:#000000;-inkscape-stroke:none"
       d="m 40.5,16 v 8.5 H 39 v 1 h 2.5 V 16 Z"
       id="path1009" />
    <path
       style="color:#000000;fill:#000000;-inkscape-stroke:none"
       d="m 29,18.5 v 1 h 12 v -1 z"
       id="path1011" />
    <path
       style="color:#000000;fill:#000000;-inkscape-stroke:none"
       d="m 29,21.5 v 1 h 12 v -1 z"
       id="path1013" />
    <path
       id="path1017"
       style="color:#000000;fill:#000000;-inkscape-stroke:none"
       d="m 74,8 c -2.246604,-1.27e-4 -4.468847,0.845601 -6.146484,2.339844 -1.677642,1.494238 -2.774397,3.60429 -3.033204,5.835937 -0.258802,2.231647 0.326052,4.538423 1.617188,6.376953 1.011567,1.440438 2.439877,2.567773 4.0625,3.236328 l 0.002,4.712891 h 7 L 77.5,25.789062 c 1.622604,-0.668575 3.050932,-1.795975 4.0625,-3.236328 1.291138,-1.838422 1.875855,-4.143425 1.617188,-6.375 -0.25867,-2.231571 -1.355754,-4.341615 -3.033204,-5.835937 C 78.469039,8.847471 76.246517,8.000127 74,8 Z m 0,1 c 1.993815,1.13e-4 3.993662,0.761655 5.482422,2.087891 1.488756,1.326231 2.473551,3.224524 2.703125,5.205078 0.229574,1.980554 -0.295508,4.051968 -1.441406,5.683593 C 79.720679,23.43385 78.19672,24.54568 76.5,25.091797 V 25.5 h -5 v -0.408203 c -1.69676,-0.546111 -3.220681,-1.657862 -4.244141,-3.115235 -1.145896,-1.63172 -1.6711,-3.704929 -1.441406,-5.685546 0.229695,-1.980618 1.216153,-3.876969 2.705078,-5.203125 C 70.008461,9.76173 72.006108,8.999887 74,9 Z m -2.5,17.5 h 5 v 1 h -5 z m 0.002,2 h 5 v 1.001953 h -5 z" />
    <path
       id="path1029"
       style="color:#000000;fill:#000000;-inkscape-stroke:none"
       d="m 109.5,8 v 18 h 1 v -6.5 h 4.5 c 0.82947,0 1.69164,-0.0066 2.56055,-0.164062 0.86955,-0.15759 1.72607,-0.466325 2.48047,-0.970704 0.75474,-0.504623 1.38653,-1.192163 1.81445,-1.998046 C 122.28306,15.561924 122.5,14.6568 122.5,13.75 c 0,-0.9068 -0.21694,-1.811923 -0.64453,-2.617188 C 121.42755,10.32693 120.79576,9.639389 120.04102,9.134766 119.28662,8.630387 118.4301,8.321653 117.56055,8.164062 116.69164,8.00659 115.82947,8 115,8 h -4.5 -0.5 z m 1,1 h 4.5 c 0.82323,0 1.62356,0.0092 2.38086,0.146484 0.75665,0.13713 1.48596,0.40416 2.10547,0.81836 0.61914,0.413953 1.13721,0.982926 1.48437,1.636718 0.34749,0.654413 0.5293,1.402546 0.5293,2.148438 0,0.745892 -0.18181,1.494026 -0.5293,2.148438 -0.34716,0.653793 -0.86523,1.222765 -1.48437,1.636718 -0.61951,0.4142 -1.34882,0.68123 -2.10547,0.81836 C 116.62356,18.490761 115.82323,18.5 115,18.5 h -4.5 z" />
    <path
       style="color:#000000;fill:#000000;-inkscape-stroke:none"
       d="m 6,10.5 v 1 h 6 v -1 z"
       id="path1458" />
    <path
       style="color:#000000;fill:#000000;-inkscape-stroke:none"
       d="M 8.5,7 V 24.5 H 7 v 1 H 9.5 V 7 Z"
       id="path1460" />
    <path
       style="color:#000000;fill:#000000;-inkscape-stroke:none"
       d="m 11.777344,15.552734 -6,3 0.445312,0.894532 6,-3 z"
       id="path1462" />
    <path
       style="color:#000000;fill:#000000;-inkscape-stroke:none"
       d="m 13,10.5 v 1 h 11 v -1 z"
       id="path1464" />
    <path
       style="color:#000000;fill:#000000;-inkscape-stroke:none"
       d="m 18.029297,7 v 8 h 0.941406 V 7 Z"
       id="path1466" />
    <path
       style="color:#000000;fill:#000000"
       d="m 13,14.501953 v 1 h 11 v -1 z"
       id="path1468" />
    <path
       style="color:#000000;fill:#000000"
       d="m 23.292968,14.794921 -10,10 L 14,25.501953 l 10,-10 z"
       id="path1470" />
    <path
       style="color:#000000;fill:#000000"
       d="M 13.707032,14.794921 13,15.501953 23,25.5 23.707032,24.792968 Z"
       id="path1472" />
    <path
       style="color:#000000;fill:#000000;-inkscape-stroke:none"
       d="m 55.113281,7.992187 c -0.942975,-2.49e-4 -1.885873,0.145538 -2.785156,0.4375 -1.798568,0.583952 -3.394149,1.743749 -4.505859,3.273438 -1.111712,1.529689 -1.722545,3.405884 -1.722657,5.296875 -1.11e-4,1.891081 0.611029,3.76897 1.722657,5.298828 1.111628,1.529859 2.707239,2.689354 4.505859,3.273438 1.798619,0.584084 3.771953,0.582864 5.570312,-0.002 1.798365,-0.584865 3.394897,-1.745048 4.50586,-3.27539 l -0.808594,-0.587891 c -0.984009,1.355465 -2.413001,2.394079 -4.005859,2.91211 -1.592866,0.517991 -3.360042,0.519291 -4.953125,0.002 -1.593085,-0.517338 -3.021262,-1.55512 -4.00586,-2.910157 C 47.646261,20.355902 47.099511,18.67498 47.099609,17 c 9.9e-5,-1.674901 0.546578,-3.354098 1.53125,-4.708984 0.984672,-1.354886 2.414773,-2.392935 4.007813,-2.910157 1.593043,-0.517199 3.358402,-0.516101 4.951172,0.002 1.592769,0.518055 3.021896,1.556709 4.005859,2.91211 l 0.808594,-0.587891 C 61.293386,10.176808 59.696701,9.01658 57.898437,8.431688 56.999306,8.139241 56.056256,7.992484 55.113281,7.992234 Z"
       id="path1549" />
    <path
       style="color:#000000;fill:#000000;-inkscape-stroke:none"
       d="m 73.5,1 v 5 h 1 V 1 Z"
       id="path1561" />
    <path
       style="color:#000000;fill:#000000;-inkscape-stroke:none"
       d="m 82.066406,2.919922 -2.5,4.330078 0.867188,0.5 2.5,-4.330078 z"
       id="path1708" />
    <path
       style="color:#000000;fill:#000000;-inkscape-stroke:none"
       d="m 65.933594,2.919922 -0.867188,0.5 2.5,4.330078 0.867188,-0.5 z"
       id="path1710" />
    <path
       style="fill:none;stroke:#000000;stroke-width:1px;stroke-linecap:butt;stroke-linejoin:miter;stroke-opacity:1"
       d="M 73,26 V 24 C 72.984363,22.457014 72.225007,20.938301 71,20 70.616713,19.706419 70.192786,19.46797 69.818226,19.163333 69.443665,18.858696 69.111417,18.469772 69,18 68.907771,17.611131 68.977616,17.191462 69.165253,16.838591 69.35289,16.48572 69.65318,16.198598 70,16 c 0.345673,-0.197941 0.740574,-0.311208 1.138847,-0.318229 0.398272,-0.007 0.799004,0.09314 1.143026,0.293938 0.344022,0.200796 0.62967,0.502499 0.804,0.86066 C 73.260204,17.19453 73.32133,17.608104 73.25,18 73.204077,18.252309 73.101637,18.498687 72.928358,18.687746 72.75508,18.876804 72.506431,19.00345 72.25,19 71.9957,18.996578 71.752935,18.865973 71.581984,18.677676 71.411032,18.48938 71.306877,18.247881 71.25,18 c -0.08713,-0.379713 -0.06795,-0.782056 0.04615,-1.154555 0.114097,-0.372498 0.322019,-0.714741 0.593465,-0.994186 C 72.432509,15.292367 73.220838,15 74,15 c 0.779162,0 1.567491,0.292367 2.110384,0.851259 0.271446,0.279445 0.479368,0.621688 0.593465,0.994186 C 76.817946,17.217944 76.837127,17.620287 76.75,18 76.693123,18.247881 76.588968,18.48938 76.418016,18.677676 76.247065,18.865973 76.0043,18.996578 75.75,19 75.493569,19.00345 75.24492,18.876804 75.071642,18.687746 74.898363,18.498687 74.795923,18.252309 74.75,18 c -0.07133,-0.391896 -0.0102,-0.80547 0.164127,-1.163631 0.17433,-0.358161 0.459978,-0.659864 0.804,-0.86066 0.344022,-0.200796 0.744754,-0.300959 1.143026,-0.293938 C 77.259426,15.688792 77.654327,15.802059 78,16 c 0.34682,0.198598 0.64711,0.48572 0.834747,0.838591 C 79.022384,17.191462 79.092229,17.611131 79,18 78.888583,18.469772 78.556335,18.858696 78.181774,19.163333 77.807214,19.46797 77.383287,19.706419 77,20 c -1.225007,0.938301 -1.984363,2.457014 -2,4 v 2"
       id="path2112"
       sodipodi:nodetypes="cccsssssssssssscc"
       inkscape:original-d="m 73,26 v -2 c 0.451677,-2.209794 -0.893097,-2.881358 -2,-4 -0.765123,-0.787756 -1.573675,-1.715641 -2,-2 -1.001,-0.667667 0.334333,-0.999 1,-2 0.665667,-1.001 2.584333,1.001 3.25,2 0.665667,0.999 -0.665667,0.667667 -1,1 -0.334333,0.332333 -0.665667,-0.665667 -1,-1 -0.334333,-0.334333 2.084333,-1.999 2.75,-3 0.665667,-1.001 2.084333,2.001 2.75,3 0.665667,0.999 -0.665667,0.667667 -1,1 -0.334333,0.332333 -0.665667,-0.332333 -1,-1 -0.334333,-0.667667 2.584333,-1.332333 3.25,-2 0.665667,-0.667667 0.667667,1.001 1,2 0.155276,0.466763 -1.036323,1.169445 -2,2 -1.098854,0.947059 -2,4 -2,4 0,0 0.001,0.334333 0,2"
       inkscape:path-effect="#path-effect2114" />
    <path
       id="path2264"
       style="color:#000000;fill:#000000;-inkscape-stroke:none"
       d="m 91.5,8 c -1.136784,0 -2.187098,0.542649 -2.951172,1.318359 -0.758139,0.769685 -1.241062,1.742602 -1.535156,2.734375 C 86.4294,14.023061 86.5,16.061694 86.5,18 v 8 h 1 v -8 c 0,-1.958898 -0.05105,-3.896046 0.472656,-5.662109 0.259888,-0.876421 0.677829,-1.699802 1.28711,-2.31836 C 89.863108,9.407001 90.688182,9 91.5,9 c 0.81182,0 1.63689,0.407001 2.24023,1.019531 0.60928,0.618558 1.02723,1.441939 1.28711,2.31836 0.38642,1.303123 0.45872,2.699484 0.47071,4.128906 -0.003,0.515557 0.002,1.02828 0.002,1.533203 v 8 h 1 v -8 c 0,-0.504923 0.005,-1.017646 0.002,-1.533203 0.012,-1.429422 0.0843,-2.825784 0.4707,-4.128906 0.25989,-0.876421 0.67783,-1.699802 1.28711,-2.31836 C 98.86316,9.407001 99.68823,9 100.50005,9 c 0.81182,0 1.63689,0.407001 2.24023,1.019531 0.60928,0.618559 1.02723,1.44194 1.28711,2.31836 0.52371,1.766063 0.47266,3.703211 0.47266,5.662109 v 8 h 1 v -8 c 0,-1.938306 0.0706,-3.976938 -0.51367,-5.947266 -0.29409,-0.991774 -0.77702,-1.96469 -1.53516,-2.734375 C 102.68715,8.542649 101.63683,8 100.50005,8 c -1.13679,0 -2.1871,0.542649 -2.95117,1.318359 -0.75814,0.769685 -1.24107,1.742602 -1.53516,2.734375 -0.005,0.01683 -0.009,0.03394 -0.0137,0.05078 -0.005,-0.01684 -0.009,-0.03395 -0.0137,-0.05078 C 95.69222,11.060961 95.2093,10.088044 94.45116,9.318359 93.68709,8.542649 92.63677,8 91.49999,8 Z" />
  </g>
</svg>
